<?xml version="1.0" encoding="utf-8" ?><svg xmlns="http://www.w3.org/2000/svg" xmlns:xlink="http://www.w3.org/1999/xlink" width="1024" height="1024" viewBox="0 0 1024 1024"><path fill="white" transform="scale(2 2)" d="M225.482 101.692C229.153 87.3061 240.632 78.8579 255.163 77.8556C269.767 76.7058 282.883 87.9235 286.231 101.692L309.5 101.681C327.119 101.682 326.359 99.5442 326.231 117.221L341.777 117.208C368.053 117.186 376.77 126.928 376.803 153.137L376.811 396.765C376.83 424.657 366.41 433.704 338.908 433.684L257.123 433.674L173.356 433.691C152.026 433.704 135.684 427.743 135.588 401.892L135.617 152.292C135.654 126.134 144.968 117.152 170.863 117.191L186.249 117.221C186.298 111.96 184.641 105.119 189.579 101.692C192.579 101.468 198.317 101.677 201.542 101.68L225.482 101.692ZM255.163 88.1038C231.603 89.899 238.284 112.199 230.312 111.762C226.344 111.88 222.435 111.847 218.476 111.837L196.47 111.813L196.449 124.499C196.382 149.78 207.098 149.183 228.9 149.178L258.103 149.156L284.222 149.158C306.022 149.164 316.014 148.655 316.007 124.02L315.987 111.813L292.919 111.828C272.522 111.86 281.121 112.894 276.014 102.205C273.313 94.3733 263.875 86.5755 255.163 88.1038ZM162.644 127.35C143.676 128.884 145.988 147.977 145.991 161.605L145.999 390.955C145.99 403.747 144.514 421.656 162.659 423.23C166.459 423.552 170.548 423.418 174.389 423.412L337.505 423.39C350.175 423.418 362.572 423.686 366.497 407.809L366.505 153.855C366.504 138.792 364.819 127.296 346.66 127.301L326.231 127.35C326.011 153.304 311.729 159.263 288.417 159.265L216.081 159.245C196.129 159.271 186.358 145.747 186.249 127.35C178.44 127.337 170.438 127.235 162.644 127.35Z"/><path fill="white" transform="scale(2 2)" d="M213.366 214.419C205.76 196.14 187.479 202.546 182.428 199.328C178.188 196.628 179.563 191.02 184.416 189.998C189.447 189.751 230.563 189.416 231.761 191.125C239.46 202.104 221.645 200.227 216.124 200.202C220.732 205.661 221.737 208.071 224.657 214.419C227.257 214.278 234.257 213.484 236.576 215.538C239.477 218.106 238.634 223.384 234.725 224.413C232.403 225.024 227.542 224.677 224.657 224.654C222.705 241.401 212.964 250.498 196.47 252.653C201.663 257.167 209.678 265.026 214.312 270.297C217.869 274.344 213.831 283.819 205.029 275.619C200.331 271.025 178.925 251.421 179.684 246.741C181.307 235.75 209.62 252.544 214.919 224.654C204.625 224.463 194.242 224.968 183.977 224.501C179.089 224.279 178.308 215.49 183.721 214.729C187.282 214.229 190.994 214.412 194.58 214.411L213.366 214.419Z"/><path fill="white" transform="scale(2 2)" d="M329.505 218.256C327.719 218.463 323.96 218.277 321.993 218.268L271.676 218.255C261.651 218.108 260.329 211.173 267.055 208.258C284.77 207.001 312.397 207.661 329.849 208.56C332.972 208.721 335.96 215.35 329.505 218.256Z"/><path fill="white" transform="scale(2 2)" d="M329.505 260.175C327.497 260.356 324.014 260.191 321.876 260.184L269.944 260.15C260.61 260.096 261.4 251.885 267.055 249.927C270.129 249.793 274.07 249.917 277.225 249.917L297.304 249.917C308.121 249.918 319.799 249.484 330.495 250.448C333.435 250.713 335.644 257.413 329.505 260.175Z"/><path fill="white" transform="scale(2 2)" d="M261.313 327.817C258.692 328.026 254.02 327.829 251.173 327.826L200.339 327.825C195.462 327.827 190.686 327.757 185.525 327.836C177.907 327.954 177.362 318.639 184.416 317.627C188.12 317.455 193.352 317.618 197.172 317.619L247.035 317.625C251.494 317.624 255.998 317.557 260.45 317.703C266.775 317.911 267.72 326.379 261.313 327.817Z"/><path fill="white" transform="scale(2 2)" d="M296.717 369.904C301.168 365.166 321.684 342.939 326.231 340.757C331.825 340.494 335.148 345.138 331.091 349.298C320.684 359.967 310.138 370.52 299.442 380.891C294.631 385.555 285.93 373.409 282.313 369.904C278.714 366.428 271.783 356.167 281.525 356.741C284.9 356.94 294.101 367.04 296.717 369.904Z"/><path fill="white" transform="scale(2 2)" d="M191.89 368.758C172.454 369.09 179.493 359.025 184.094 358.719C191.059 358.255 198.064 358.435 205.052 358.435L246.127 358.443C265.532 357.642 258.58 368.384 254.179 368.59C247.397 368.908 240.668 368.77 233.895 368.771L191.89 368.758Z"/></svg>